# xmcd
# 
# Track frame offsets:
#     150
#     11032
#     21255
#     34037
#     51277
#     64925
#     75400
#     92695
#     110217
#     123092
# 
# Disc length: 1800
# 
# Revision: 1
# Processed by: cddbd v1.5.2PL0 Copyright (c) Steve Scherf et al.
# Submitted via: BonkEnc v1.0.8
# 
DISCID=7c07060a
DTITLE=Willie Nelson - Standard Time
DYEAR=2002
DGENRE=Country
TTITLE0=Stormy Weather
TTITLE1=What A Wonderful World
TTITLE2=Ole Buttermilk Sky
TTITLE3=Wind Beneath My Wings
TTITLE4=I'm Gonna Sit Right Down And Write Myself A Letter
TTITLE5=Am I Blue
TTITLE6=Unchained Melody
TTITLE7=Stardust
TTITLE8=Old-Fashioned Love
TTITLE9=That Lucky Old Sun (Just Rolls Around Heaven All Day)
EXTD=
EXTT0=
EXTT1=
EXTT2=
EXTT3=
EXTT4=
EXTT5=
EXTT6=
EXTT7=
EXTT8=
EXTT9=
PLAYORDER=
